<svg width="56" height="56" viewBox="0 0 56 56" fill="none" xmlns="http://www.w3.org/2000/svg">
<mask id="mask0_204_623" style="mask-type:luminance" maskUnits="userSpaceOnUse" x="0" y="0" width="56" height="56">
<path d="M56 0H0V56H56V0Z" fill="white"/>
</mask>
<g mask="url(#mask0_204_623)">
<path d="M55.9995 15.4065V27.6549C55.9019 28 55.7912 28.3451 55.6805 28.6837C55.6759 28.6892 55.6736 28.6962 55.674 28.7033C55.674 28.7098 55.674 28.7098 55.6675 28.7163C54.2954 32.7957 51.9834 36.4955 48.918 39.5167C45.8527 42.5379 42.1198 44.7961 38.0209 46.1088C37.3242 46.3302 36.6209 46.5256 35.9047 46.6884C35.8963 46.6917 35.8875 46.6939 35.8786 46.6949C33.8559 47.1587 31.7873 47.3924 29.7121 47.3916H29.4321C32.7728 47.1437 35.9928 46.0368 38.7799 44.1783C41.567 42.3199 43.8268 39.7728 45.34 36.7842V36.7777C46.6161 34.2644 47.3296 31.5033 47.4308 28.6865C47.532 25.8696 47.0185 23.0644 45.9261 20.466C45.7828 19.7953 45.6135 19.1312 45.4182 18.48C45.34 18.2065 45.2489 17.9265 45.1577 17.653C45.1056 17.4837 45.047 17.3144 44.9884 17.1516C44.9168 16.9563 44.8516 16.7544 44.767 16.5591C44.7149 16.4223 44.6628 16.2791 44.6042 16.1358C44.5 15.8753 44.3893 15.6084 44.2786 15.3414C44.1484 15.0484 44.0247 14.7553 43.8814 14.4688C43.8033 14.3126 43.7316 14.1628 43.647 14.0065C43.5819 13.8567 43.4972 13.7005 43.4191 13.5507C43.3409 13.4009 43.2563 13.2381 43.1651 13.0819C43.0479 12.8474 42.9112 12.626 42.7809 12.4047C42.6051 12.0986 42.4163 11.7991 42.234 11.4995C42.2144 11.493 42.2144 11.4865 42.2079 11.467C42.0126 11.1609 41.8107 10.8549 41.5958 10.5684C41.394 10.2688 41.1791 9.9693 40.9512 9.68279C40.7363 9.39628 40.5149 9.10326 40.274 8.82326C40.2538 8.80815 40.2381 8.7879 40.2284 8.76465C40.0135 8.50419 39.7986 8.25023 39.5642 8.00279C39.3233 7.7293 39.0823 7.46884 38.8219 7.20837C38.5744 6.9414 38.3205 6.68744 38.047 6.43349C37.8061 6.19907 37.5521 5.96467 37.2851 5.73676L37.2461 5.69769C37.1093 5.58048 36.9726 5.45676 36.8358 5.34606C36.6926 5.22234 36.5493 5.10512 36.4061 4.99443C36.1326 4.76652 35.8395 4.53861 35.5465 4.32373C35.3968 4.20652 35.247 4.08932 35.0907 3.98513C34.9344 3.88094 34.7782 3.77025 34.6284 3.65955C34.5633 3.61397 34.4982 3.57489 34.433 3.52931C34.153 3.34047 33.86 3.15165 33.567 2.96932C33.2284 2.75444 32.8833 2.55257 32.5316 2.35722C32.3949 2.27908 32.2647 2.20095 32.1214 2.13583C31.9847 2.05769 31.8544 1.99256 31.7112 1.92094C31.5806 1.84589 31.4458 1.77849 31.3075 1.71908C31.0014 1.5628 30.6823 1.41303 30.3633 1.26977C30.2721 1.22419 30.1744 1.17862 30.0768 1.13955C29.8488 1.03537 29.6144 0.950717 29.38 0.853043C29.3368 0.830063 29.2909 0.812554 29.2433 0.800937C29.0805 0.729309 28.9177 0.664199 28.7484 0.605596C28.5921 0.546991 28.4358 0.48838 28.2665 0.436287L28.2535 0.429769L28.247 0.423271C28.0907 0.364666 27.9279 0.312573 27.7586 0.26048C27.4851 0.162806 27.2051 0.0846701 26.9316 1.88777e-05H40.5865C42.6109 -0.00315188 44.6161 0.393136 46.4871 1.16618C48.3581 1.93923 50.0581 3.07383 51.4899 4.505C52.9217 5.93618 54.057 7.6358 54.8308 9.50646C55.6047 11.3771 56.0018 13.3821 55.9995 15.4065Z" fill="url(#paint0_linear_204_623)"/>
<path d="M56.0013 27.6549V40.587C56.0048 42.612 55.6084 44.6178 54.8351 46.4893C54.0617 48.3609 52.9265 50.0614 51.4946 51.4933C50.0627 52.9252 48.3622 54.0604 46.4907 54.8337C44.6191 55.6071 42.6134 56.0034 40.5883 56H24.153C23.8013 55.8177 23.4497 55.6289 23.1046 55.427H23.0981C23.0916 55.4205 23.0916 55.4205 23.0851 55.4205C17.0022 51.9125 12.49 46.2123 10.472 39.4865C10.0905 38.2162 9.80538 36.9188 9.61902 35.6056V35.5925C9.52785 34.9739 9.45623 34.3423 9.41064 33.7107C10.6333 37.687 13.0986 41.1666 16.4447 43.6383C19.7908 46.1101 23.8413 47.4439 28.0013 47.4437C28.4897 47.4437 28.9651 47.4307 29.4339 47.3916H29.7139C31.7891 47.3924 33.8577 47.1587 35.8804 46.6949C35.8893 46.6939 35.8981 46.6916 35.9065 46.6884C36.6227 46.5256 37.326 46.3303 38.0227 46.1089C42.1217 44.796 45.8545 42.5379 48.9198 39.5167C51.9852 36.4954 54.2972 32.7957 55.6692 28.7162C55.6758 28.7097 55.6758 28.7098 55.6758 28.7033C55.6754 28.6962 55.6778 28.6892 55.6823 28.6837C55.793 28.3451 55.9024 28 56.0013 27.6549Z" fill="url(#paint1_linear_204_623)"/>
<path d="M24.1516 55.9999H15.413C11.3253 55.9997 7.40503 54.3758 4.51456 51.4853C1.6241 48.5949 0.000172686 44.6746 0 40.5869V27.3162C0.260465 26.6455 0.546981 25.9813 0.859542 25.3367L0.872558 25.3236C1.04186 24.972 1.21767 24.6269 1.40651 24.2883C1.51721 24.0799 1.63443 23.8715 1.74513 23.6632C1.97955 23.2725 2.20746 22.8883 2.4549 22.5106C2.68932 22.146 2.92373 21.7878 3.17768 21.4297C3.43163 21.0715 3.69861 20.7264 3.96558 20.3813C4.23256 20.0362 4.51257 19.7041 4.79257 19.3785C5.07257 19.0529 5.3656 18.7274 5.67164 18.4083C5.97769 18.0892 6.27722 17.7832 6.59628 17.4836C7.2214 16.8846 7.87907 16.3115 8.56279 15.7711C9.23349 15.2371 9.93024 14.7422 10.6465 14.2734C10.6653 14.2612 10.6849 14.2503 10.7051 14.2408C11.0633 14.0064 11.4344 13.785 11.7991 13.5636C11.8206 13.5567 11.8405 13.5457 11.8577 13.5311L12.3851 13.2381C12.8409 12.9906 13.2967 12.7562 13.7656 12.5348C13.987 12.4241 14.2149 12.3264 14.4428 12.2222C14.7228 12.0985 15.0093 11.9748 15.2893 11.8641C15.5563 11.7599 15.8298 11.6557 16.1033 11.5515L16.1163 11.545C16.2856 11.4864 16.4614 11.4213 16.6307 11.3627C16.8716 11.2846 17.1256 11.1999 17.373 11.1283C17.546 11.0651 17.7221 11.0108 17.9005 10.9655C18.3302 10.8418 18.7665 10.7246 19.2028 10.6269C19.1737 10.6523 19.1433 10.6762 19.1116 10.6985C15.0538 12.7889 11.8593 16.2384 10.0859 20.4445C8.31255 24.6505 8.07312 29.3459 9.4093 33.7106C9.45489 34.3422 9.52652 34.9739 9.61768 35.5925V35.6055C9.80404 36.9188 10.0892 38.2161 10.4707 39.4864C12.4889 46.211 17.0005 51.9102 23.0824 55.4178C23.0889 55.4178 23.0889 55.4178 23.0954 55.4243H23.102C23.4484 55.6287 23.7987 55.8176 24.1516 55.9999Z" fill="url(#paint2_linear_204_623)"/>
<path d="M45.907 20.3944C45.7702 19.7498 45.6074 19.1051 45.4186 18.48C45.36 18.2716 45.2884 18.0502 45.2167 17.8419C45.1907 17.7507 45.1712 17.6856 45.1581 17.653C45.106 17.4837 45.0474 17.3144 44.9888 17.1516C44.9172 16.9563 44.8521 16.7544 44.7674 16.5591C44.7153 16.4223 44.6632 16.2791 44.6046 16.1358C44.5005 15.8753 44.3898 15.6084 44.2791 15.3414C44.1488 15.0484 44.0186 14.7553 43.8818 14.4688C43.8037 14.3126 43.7321 14.1628 43.6474 14.0065C43.5758 13.8567 43.4977 13.7005 43.4195 13.5507C43.3414 13.4009 43.2567 13.2381 43.1656 13.0819C43.0484 12.8474 42.9116 12.626 42.7814 12.4047C42.6056 12.0986 42.4167 11.7991 42.2344 11.4995C42.2149 11.493 42.2149 11.4865 42.2084 11.467C42.0065 11.1609 41.8046 10.8614 41.5963 10.5684C41.3879 10.2753 41.173 9.97581 40.9516 9.68279C40.7302 9.38977 40.5088 9.10977 40.2744 8.82326C40.2543 8.80808 40.2386 8.7879 40.2288 8.76465C40.0074 8.50419 39.7925 8.25023 39.5646 8.00279C39.3172 7.7293 39.0763 7.46884 38.8223 7.20837C38.5684 6.94791 38.3209 6.68744 38.0474 6.43347C37.8065 6.19905 37.5525 5.96465 37.2856 5.73674L37.2465 5.69767C37.1098 5.58047 36.973 5.45674 36.8363 5.34604L36.4065 4.99441C36.133 4.7665 35.84 4.53859 35.547 4.32371C35.3972 4.21301 35.2409 4.10233 35.0912 3.98512C34.9414 3.86791 34.7786 3.77023 34.6288 3.65953C34.5637 3.61395 34.4986 3.57487 34.4335 3.52929C34.1535 3.34045 33.8605 3.15163 33.5674 2.9693C33.2288 2.75442 32.8837 2.55256 32.5321 2.35721C32.3953 2.27907 32.2651 2.20093 32.1219 2.13581C31.9851 2.05767 31.8549 1.99255 31.7116 1.92092C31.5811 1.84587 31.4463 1.77848 31.3079 1.71906C31.0019 1.56278 30.6893 1.41301 30.3637 1.26975C30.2726 1.22417 30.1749 1.1786 30.0772 1.13953C29.8428 1.03535 29.6149 0.937674 29.3805 0.853023C29.3372 0.830044 29.2913 0.812534 29.2437 0.800917C29.0809 0.729289 28.9181 0.66418 28.7488 0.605577C28.5926 0.546972 28.4363 0.488361 28.267 0.436268L28.2539 0.429751L28.2474 0.423252C28.0912 0.364647 27.9284 0.312554 27.7591 0.260461C27.4856 0.162787 27.2056 0.0846512 26.9321 2.20273e-07H15.4065C13.3832 -0.00034193 11.3797 0.397917 9.51029 1.17205C7.64094 1.94618 5.94239 3.081 4.5117 4.5117C3.081 5.94239 1.94619 7.64094 1.17207 9.5103C0.397937 11.3797 -0.00034193 13.3832 2.20262e-07 15.4065V27.3163C0.266977 26.6326 0.560004 25.9619 0.879076 25.3107C1.25024 24.5423 1.66046 23.8 2.09674 23.0772C2.20744 22.8884 2.33118 22.6995 2.4549 22.5107C2.68931 22.146 2.92373 21.7879 3.17768 21.4298C3.43163 21.0716 3.68558 20.7265 3.96558 20.3814C4.22605 20.0428 4.49955 19.7042 4.79257 19.3786C5.08559 19.053 5.36559 18.7209 5.67164 18.4084C5.96466 18.0893 6.27721 17.7767 6.59628 17.4837C7.22263 16.8802 7.87894 16.3086 8.56279 15.7712C9.22899 15.2406 9.92229 14.7451 10.64 14.2865C10.6601 14.2691 10.6819 14.2539 10.7051 14.2409C11.0502 14.013 11.3953 13.7981 11.7535 13.5898C12.8911 12.9342 14.0725 12.3576 15.2893 11.8642C15.5563 11.76 15.8298 11.6558 16.1033 11.5516L16.1163 11.5451C16.2856 11.4865 16.4614 11.4214 16.6307 11.3628C16.6597 11.3571 16.6881 11.3484 16.7153 11.3367C16.9367 11.2586 17.1581 11.1935 17.373 11.1284C17.546 11.0652 17.722 11.0109 17.9005 10.9656C18.3302 10.8419 18.7665 10.7247 19.2028 10.627C19.1702 10.6465 19.1442 10.6791 19.1116 10.6986C19.1833 10.6595 19.2484 10.6335 19.3135 10.5944H19.333C22.0216 9.24241 24.9906 8.54195 28 8.54977C32.9188 8.54417 37.6558 10.4088 41.2512 13.7656C41.2707 13.7851 41.2902 13.7981 41.2967 13.8177C42.4096 14.859 43.3954 16.0284 44.2335 17.3014L44.24 17.3079C44.3832 17.5293 44.5265 17.7507 44.6632 17.9786C45.1436 18.7763 45.5658 19.6076 45.9265 20.466C45.9184 20.4427 45.9118 20.4187 45.907 20.3944Z" fill="url(#paint3_linear_204_623)"/>
<g style="mix-blend-mode:multiply" opacity="0.08">
<path d="M56.0005 15.9993V27.6551C54.3532 33.3514 50.8978 38.3573 46.1559 41.9176C41.414 45.4779 35.6428 47.3993 29.7131 47.3919H29.4331C32.7738 47.1439 35.9938 46.037 38.7809 44.1785C41.568 42.32 43.8278 39.7731 45.341 36.7844C45.3475 36.7779 45.341 36.7779 45.341 36.7779C49.3782 32.1482 53.2526 25.5128 56.0005 15.9993Z" fill="black"/>
</g>
<g style="mix-blend-mode:multiply" opacity="0.08">
<path d="M31.739 55.9999H24.153C19.9952 53.8547 16.4569 50.6794 13.8759 46.7772C11.2949 42.875 9.75758 38.3762 9.41064 33.7106C10.4058 36.9515 12.2334 39.8747 14.7111 42.1887C19.0413 48.2404 24.924 53.0117 31.739 55.9999Z" fill="black"/>
</g>
<g style="mix-blend-mode:multiply" opacity="0.08">
<path d="M19.2028 10.6269C19.1737 10.6523 19.1433 10.6762 19.1116 10.6985C17.0547 11.7617 15.2027 13.1816 13.6419 14.892C9.56558 18.4278 4.49302 24.0994 0 32.8771V27.3162C0.401067 26.2767 0.87095 25.2652 1.40651 24.2883C1.51721 24.0799 1.63443 23.8715 1.74513 23.6632C1.97955 23.2725 2.20745 22.8883 2.4549 22.5106C2.68932 22.146 2.92373 21.7878 3.17767 21.4297C3.43163 21.0715 3.6986 20.7264 3.96558 20.3813C4.23256 20.0362 4.51257 19.7041 4.79257 19.3785C5.07257 19.0529 5.36559 18.7274 5.67164 18.4083C5.97769 18.0892 6.27722 17.7832 6.59628 17.4836C7.2214 16.8846 7.87907 16.3115 8.56279 15.7711C9.23349 15.2371 9.93023 14.7422 10.6465 14.2734C10.6653 14.2612 10.6849 14.2503 10.7051 14.2408C11.0633 14.0064 11.4344 13.785 11.7991 13.5636C11.8206 13.5567 11.8405 13.5457 11.8577 13.5311L12.3851 13.2381C12.8409 12.9906 13.2967 12.7562 13.7656 12.5348C13.987 12.4241 14.2149 12.3264 14.4428 12.2222C14.7228 12.0985 15.0093 11.9748 15.2893 11.8641C15.7321 11.6883 16.1814 11.519 16.6307 11.3627C16.8716 11.2846 17.1256 11.1999 17.373 11.1283C17.546 11.0651 17.722 11.0108 17.9005 10.9655C18.3289 10.8418 18.7665 10.7246 19.2028 10.6269Z" fill="black"/>
</g>
<g style="mix-blend-mode:multiply" opacity="0.08">
<path d="M45.9266 20.466C45.5658 19.6076 45.1437 18.7763 44.6633 17.9786C44.5515 17.7379 44.4092 17.5124 44.2401 17.3079L44.2336 17.3014C43.3954 16.0284 42.4097 14.859 41.2968 13.8177C41.2903 13.7981 41.2708 13.7851 41.2512 13.7656C36.9861 9.27256 29.1787 3.54884 15.4131 0H26.9322C27.2056 0.0846512 27.4856 0.162787 27.7591 0.260461C27.9284 0.312554 28.0912 0.364647 28.2475 0.423252C28.254 0.423252 28.2605 0.436268 28.267 0.436268C28.4363 0.488361 28.5926 0.546972 28.7489 0.605577C28.9182 0.664179 29.081 0.729289 29.2438 0.800917C29.2914 0.812534 29.3373 0.830044 29.3805 0.853023C29.6149 0.937674 29.8429 1.03535 30.0773 1.13953C30.1749 1.1786 30.2726 1.22417 30.3638 1.26975C30.6894 1.41301 31.0019 1.56278 31.308 1.71906C31.4463 1.77848 31.5811 1.84587 31.7117 1.92092C31.8549 1.99255 31.9852 2.05767 32.1219 2.13581C32.2652 2.20093 32.3954 2.27907 32.5322 2.35721C32.8838 2.55256 33.2289 2.75442 33.5675 2.9693C33.8605 3.15163 34.1536 3.34045 34.4336 3.52929C34.4987 3.57487 34.5638 3.61395 34.6289 3.65953C34.7787 3.77023 34.9349 3.87442 35.0912 3.98512C35.2475 4.09581 35.3973 4.21301 35.547 4.32371C35.8401 4.53859 36.1331 4.7665 36.4066 4.99441L36.8363 5.34604C36.9731 5.45674 37.1098 5.58046 37.2466 5.69767L37.2856 5.73674C37.5526 5.96465 37.8066 6.19905 38.0475 6.43347C38.321 6.68744 38.5749 6.94139 38.8224 7.20837C39.0698 7.47535 39.3173 7.7293 39.5647 8.00279C39.7926 8.25023 40.0075 8.50419 40.2289 8.76465C40.2387 8.7879 40.2544 8.80808 40.2745 8.82326C40.5089 9.10977 40.7303 9.39628 40.9517 9.68279C41.1731 9.9693 41.388 10.2688 41.5963 10.5684C41.8047 10.8679 42.0066 11.1609 42.2084 11.467C42.2149 11.4865 42.2149 11.493 42.2345 11.4995C42.4168 11.7991 42.6056 12.0986 42.7815 12.4046C42.9117 12.626 43.0484 12.8474 43.1656 13.0819C43.2568 13.2381 43.3349 13.3944 43.4196 13.5507C43.5043 13.707 43.5759 13.8567 43.6475 14.0065C43.7322 14.1628 43.8038 14.3126 43.8819 14.4688C44.0187 14.7553 44.1489 15.0484 44.2791 15.3414C44.3898 15.6084 44.5005 15.8753 44.6047 16.1358C44.6633 16.2791 44.7154 16.4223 44.7675 16.5591C44.8522 16.7544 44.9173 16.9563 44.9889 17.1516C45.0475 17.3144 45.1061 17.4837 45.1582 17.653C45.1712 17.6856 45.1908 17.7507 45.2168 17.8419C45.2559 17.9851 45.3145 18.2 45.3796 18.4409C45.5684 19.1442 45.8224 20.0884 45.907 20.3944C45.9119 20.4187 45.9184 20.4427 45.9266 20.466Z" fill="black"/>
</g>
<g style="mix-blend-mode:multiply" opacity="0.25">
<path d="M23.0972 55.427C23.0907 55.4205 23.0907 55.4205 23.0842 55.4205C17.0013 51.9125 12.4891 46.2123 10.4712 39.4865C10.0897 38.2162 9.80453 36.9189 9.61816 35.6056C9.64421 35.6772 9.74188 36.0419 9.9177 36.6214C10.1065 37.2726 10.3996 38.1972 10.7968 39.2716C11.0117 39.8121 11.2265 40.3916 11.487 40.9907C11.6107 41.2968 11.754 41.6028 11.9037 41.9154C12.0535 42.2279 12.1903 42.5405 12.353 42.8595C12.6656 43.5042 13.0303 44.1423 13.4014 44.787C13.7726 45.4316 14.1828 46.0763 14.6126 46.6949C15.0293 47.3265 15.4786 47.9386 15.941 48.5247C16.4033 49.1107 16.8721 49.6772 17.354 50.2047C17.8358 50.7321 18.2982 51.2335 18.767 51.6958C19.2358 52.1581 19.6721 52.5749 20.1149 52.9656C20.5577 53.3563 20.9354 53.6949 21.3065 54.0009C21.6777 54.307 21.9903 54.5544 22.2572 54.7693C22.7573 55.1574 23.0647 55.3944 23.0972 55.427Z" fill="black"/>
</g>
<g style="mix-blend-mode:multiply" opacity="0.25">
<path d="M55.6686 28.7162C54.2966 32.7957 51.9845 36.4954 48.9192 39.5166C45.8538 42.5379 42.121 44.7961 38.022 46.1088C37.3253 46.3302 36.622 46.5255 35.9058 46.6883C35.9969 46.6428 36.3877 46.4865 37.0063 46.2521C37.3514 46.1088 37.8268 45.9721 38.2761 45.7572C38.7579 45.5293 39.3375 45.3144 39.904 45.0214C40.1905 44.8781 40.49 44.7283 40.8026 44.5786C41.1086 44.4093 41.4211 44.2335 41.7467 44.0576C42.082 43.8837 42.408 43.6925 42.7234 43.4846C43.049 43.2762 43.3942 43.0874 43.7263 42.8595C44.0584 42.6316 44.3969 42.4037 44.7355 42.1693C45.0741 41.9348 45.3932 41.6679 45.7318 41.4204C46.0704 41.173 46.396 40.8995 46.7216 40.626C47.0472 40.3525 47.3793 40.0855 47.6789 39.7795C47.9914 39.4865 48.317 39.213 48.6165 38.9135C48.9161 38.6139 49.2091 38.3014 49.5021 38.0018C50.0491 37.3637 50.6286 36.7711 51.1104 36.1265C51.6248 35.5144 52.0611 34.8697 52.5039 34.2772C52.7058 33.9711 52.9012 33.6651 53.09 33.3786C53.2848 33.1038 53.4652 32.8191 53.6304 32.5255C53.956 31.9655 54.2686 31.4576 54.5095 30.9888C54.7505 30.52 54.9913 30.1162 55.1411 29.7646C55.4146 29.1981 55.6099 28.8269 55.6686 28.7162Z" fill="black"/>
</g>
<g style="mix-blend-mode:multiply" opacity="0.25">
<path d="M16.1023 11.5515L14.7739 12.3069C14.3246 12.5478 13.8949 12.8213 13.4586 13.0817C13.0223 13.3422 12.5991 13.6222 12.1758 13.8892L12.013 13.9934L11.8763 14.091L11.5571 14.3124L11.2446 14.5338L11.0883 14.6445L11.0167 14.6966C11.0232 14.6901 11.0297 14.6836 11.0297 14.6771L10.9646 14.7357L9.47993 15.8752L9.10883 16.1552L9.01109 16.2204L8.9786 16.2464H8.97202V16.2529L8.96558 16.2594L8.94604 16.2724L8.7897 16.4092L8.09302 17.0343C7.8586 17.2427 7.63069 17.451 7.38976 17.6464L7.03807 17.9524L6.73202 18.2455L6.0874 18.8836C5.87903 19.1115 5.65764 19.3329 5.44276 19.5543L5.27997 19.7236L5.2474 19.7562L5.2409 19.7627H5.23439L5.22787 19.7757L5.21485 19.7822L5.14323 19.8734L4.83066 20.225L4.52462 20.5701L4.38136 20.7264L4.23159 20.9022L3.62601 21.6185L3.06602 22.3348L2.77299 22.6994L2.49949 23.0641C2.31716 23.2724 2.14137 23.5655 1.96556 23.8129C1.61393 24.3208 1.24926 24.8287 0.871582 25.3236C1.04088 24.972 1.2167 24.6269 1.40554 24.2883C1.51624 24.0799 1.63346 23.8715 1.74416 23.6631C1.97858 23.2724 2.20649 22.8883 2.45393 22.5106C2.68835 22.1459 2.92275 21.7878 3.1767 21.4297C3.43066 21.0715 3.69763 20.7264 3.96461 20.3813C4.23158 20.0362 4.5116 19.7041 4.7916 19.3785C5.0716 19.0529 5.36462 18.7273 5.67067 18.4083C5.97672 18.0892 6.27624 17.7831 6.59534 17.4836C7.22046 16.8845 7.87813 16.3115 8.56185 15.771C9.23255 15.2371 9.9293 14.7422 10.6456 14.2734C10.6643 14.2611 10.6839 14.2503 10.7041 14.2408C11.0623 14.0064 11.4334 13.785 11.7981 13.5636C11.8196 13.5567 11.8395 13.5456 11.8567 13.531L12.3842 13.238C12.84 12.9906 13.2958 12.7562 13.7646 12.5348C13.986 12.4241 14.2139 12.3264 14.4419 12.2222C14.7219 12.0985 15.0084 11.9748 15.2884 11.8641C15.5553 11.7599 15.8288 11.6557 16.1023 11.5515Z" fill="black"/>
</g>
<g style="mix-blend-mode:multiply" opacity="0.25">
<path d="M44.6056 16.136C44.3842 15.7518 44.1758 15.3807 43.9479 15.003L43.7786 14.723C43.72 14.6188 43.6809 14.5472 43.6158 14.4495L43.2707 13.896L42.9256 13.3556L42.5609 12.8086L41.8967 11.8384L41.8837 11.8253C41.8585 11.8 41.8366 11.7716 41.8186 11.7407C41.818 11.7357 41.8156 11.7312 41.8121 11.7277V11.7211L41.3237 11.0895C41.2391 10.9788 41.1674 10.8746 41.0763 10.7704L40.8223 10.4514L40.5684 10.1258L40.4577 9.98905L40.3274 9.82626L39.8456 9.25324L39.8326 9.24021C39.8213 9.22556 39.8081 9.21241 39.7935 9.20114C39.7727 9.17829 39.7532 9.15439 39.7349 9.12952C39.507 8.88859 39.2921 8.63463 39.0772 8.40021L38.3609 7.65138L37.6043 6.90645L36.8554 6.20971L36.8359 6.19017V6.18368H36.8294C36.6406 6.01437 36.4517 5.84505 36.2499 5.67575L35.9568 5.44134L35.6573 5.19389L35.0582 4.699L34.7522 4.45808L34.4526 4.23019C34.342 4.15205 34.2573 4.08692 34.1401 4.00878L33.8406 3.7939L33.5215 3.56599L33.3652 3.44879C33.3457 3.43576 33.3001 3.40971 33.3001 3.4032L33.2154 3.35112L32.5643 2.91482L31.9326 2.50459L31.9131 2.49809C31.7113 2.36786 31.5094 2.23763 31.288 2.11391L30.6368 1.72971L29.9857 1.35204L29.3215 0.993908L29.302 0.980872L29.2043 0.928792L29.1913 0.922274C28.8917 0.765995 28.5792 0.590178 28.2666 0.433899C28.4359 0.485992 28.5922 0.544602 28.7485 0.603207C28.9178 0.661815 29.0806 0.726918 29.2433 0.798546C29.2909 0.810163 29.3369 0.827673 29.3801 0.850652C29.6145 0.935303 29.8424 1.03298 30.0768 1.13716C30.1745 1.17623 30.2722 1.2218 30.3633 1.26738C30.6889 1.41064 31.0015 1.56041 31.3075 1.71669C31.4459 1.7761 31.5807 1.84351 31.7113 1.91855C31.8545 1.99017 31.9847 2.0553 32.1215 2.13344C32.2647 2.19856 32.395 2.2767 32.5317 2.35484C32.8833 2.55019 33.2285 2.75205 33.5671 2.96693C33.8601 3.14926 34.1531 3.33809 34.4331 3.52692C34.4982 3.57251 34.5633 3.61158 34.6285 3.65716C34.7782 3.76786 34.9345 3.87205 35.0908 3.98275C35.2471 4.09344 35.3968 4.21065 35.5466 4.32134C35.8396 4.53623 36.1326 4.76413 36.4061 4.99204L36.8359 5.34367C36.9726 5.45437 37.1094 5.57809 37.2461 5.6953L37.2852 5.73437C37.5522 5.96228 37.8061 6.19669 38.0471 6.4311C38.3206 6.68505 38.5745 6.939 38.822 7.20598C39.0694 7.47296 39.3168 7.72691 39.5643 8.0004C39.7922 8.24784 40.0071 8.5018 40.2285 8.76226C40.2382 8.78551 40.2539 8.80576 40.274 8.82086C40.5085 9.10738 40.7299 9.39389 40.9513 9.6804C41.1726 9.96691 41.3875 10.2664 41.5959 10.566C41.8043 10.8655 42.0061 11.1585 42.208 11.4646C42.2145 11.4841 42.2145 11.4906 42.234 11.4971C42.4164 11.7967 42.6052 12.0962 42.781 12.4023C42.9113 12.6237 43.048 12.8451 43.1652 13.0795C43.2564 13.2357 43.3345 13.392 43.4192 13.5483C43.5038 13.7046 43.5754 13.8544 43.6471 14.0041C43.7317 14.1604 43.8033 14.3102 43.8815 14.4664C44.0182 14.753 44.1485 15.046 44.2787 15.339C44.3907 15.6086 44.5014 15.8756 44.6056 16.136Z" fill="black"/>
</g>
<g style="mix-blend-mode:screen" opacity="0.4">
<path d="M23.0823 55.418C23.0041 55.3854 22.6525 55.2422 22.1185 54.9817C21.806 54.8319 21.4348 54.6496 21.0181 54.4087C20.6013 54.1677 20.1325 53.8812 19.6571 53.5491C19.1253 53.1989 18.6123 52.8207 18.1204 52.4161C17.5647 51.9682 17.0322 51.4923 16.525 50.9901C15.9751 50.4598 15.4555 49.8989 14.9688 49.3101C14.4674 48.711 13.9855 48.0794 13.5362 47.4282C13.0934 46.764 12.6767 46.0868 12.3055 45.4031C12.1117 45.0675 11.9356 44.7218 11.7781 44.3677C11.6088 44.0226 11.4525 43.6775 11.3092 43.3389C11.0263 42.6826 10.7806 42.0108 10.5734 41.3268C10.3585 40.6822 10.2153 40.057 10.0785 39.484C9.86736 38.5563 9.72802 37.6137 9.66179 36.6645C9.61621 36.0589 9.61621 35.6812 9.61621 35.6031C9.80251 36.9164 10.0877 38.2137 10.4692 39.484C12.4871 46.2098 16.9993 51.91 23.0823 55.418Z" fill="white"/>
</g>
<g style="mix-blend-mode:screen" opacity="0.4">
<path d="M55.6686 28.7162C55.649 28.8204 55.5513 29.2307 55.3885 29.8623C55.2974 30.24 55.1412 30.6828 54.9654 31.1907C54.7712 31.762 54.5474 32.3228 54.2946 32.8707C54.0406 33.4893 53.6826 34.1144 53.3309 34.7916C52.4946 36.2319 51.5244 37.5902 50.4332 38.8483C50.1272 39.1674 49.8276 39.493 49.5216 39.8121C49.2155 40.1311 48.8769 40.4372 48.5579 40.7432C48.2388 41.0493 47.8806 41.3293 47.5355 41.6093C47.1904 41.8893 46.8518 42.1758 46.4872 42.4232C45.7939 42.9348 45.0721 43.4066 44.3253 43.8362C43.6314 44.2372 42.9162 44.6003 42.183 44.9237C41.8249 45.0735 41.4928 45.2362 41.1607 45.3665C40.8156 45.4837 40.4899 45.6009 40.1709 45.7116C39.605 45.9127 39.0291 46.0844 38.4454 46.226C37.9929 46.3431 37.5341 46.4344 37.0713 46.4995C36.4202 46.6102 36.0099 46.6753 35.9058 46.6883C36.622 46.5255 37.3253 46.3302 38.022 46.1088C42.121 44.7961 45.8538 42.5379 48.9192 39.5166C51.9845 36.4954 54.2966 32.7957 55.6686 28.7162Z" fill="white"/>
</g>
<g style="mix-blend-mode:screen" opacity="0.4">
<path d="M8.94775 16.2769C8.95572 16.261 8.97166 16.261 8.97166 16.253V16.261L8.94775 16.2769Z" fill="white"/>
</g>
<g style="mix-blend-mode:screen" opacity="0.4">
<path d="M16.1046 11.5515C15.8311 11.6557 15.5576 11.7599 15.2906 11.8641C14.0738 12.3575 12.8924 12.9341 11.7548 13.5897C11.3966 13.798 11.0515 14.0129 10.7064 14.2408C10.6832 14.2538 10.6614 14.269 10.6413 14.2864C9.92359 14.7449 9.23029 15.2405 8.56409 15.771C7.88024 16.3085 7.22393 16.88 6.59758 17.4836C6.27851 17.7766 5.96597 18.0892 5.67295 18.4083C5.3669 18.7208 5.08038 19.0464 4.79387 19.3785C4.50736 19.7106 4.22734 20.0427 3.96688 20.3813C3.68688 20.7264 3.42642 21.078 3.17898 21.4297C2.93154 21.7813 2.69061 22.1459 2.4562 22.5106C2.33247 22.6994 2.20875 22.8883 2.09805 23.0771C1.66177 23.7999 1.25154 24.5422 0.880375 25.3106C0.873863 25.3171 0.867351 25.3301 0.86084 25.3366C1.07572 24.7441 1.30362 24.158 1.54455 23.585C1.6813 23.292 1.76596 23.0185 1.93526 22.7124L2.16317 22.2827L2.39108 21.879C2.54736 21.5924 2.67758 21.3515 2.87293 21.0455L3.39388 20.2706L3.5241 20.0752L3.67387 19.8669L4.24689 19.1245L4.31851 19.0334L4.40968 18.9227L4.55944 18.7404C4.7613 18.5059 4.95667 18.265 5.16504 18.0306L5.83574 17.3469L5.99853 17.1776L6.12225 17.0538L6.20038 16.9822L6.54548 16.6697C6.77339 16.4613 7.01432 16.2594 7.25525 16.0576L7.96502 15.452L8.14083 15.3022L8.20595 15.2501L8.232 15.2371L8.27758 15.198L8.37525 15.1329L8.75944 14.8659L10.3157 13.8371L10.2506 13.8957C10.3071 13.8465 10.3681 13.8029 10.4329 13.7655L10.5111 13.7134L10.6804 13.6222L11.019 13.4399L11.3576 13.2576L11.5399 13.1599L11.7157 13.0687C12.1846 12.8343 12.6599 12.639 13.1418 12.4436C13.6236 12.2483 14.1185 12.0855 14.6134 11.9227C15.1018 11.7729 15.6097 11.6557 16.1046 11.5515Z" fill="white"/>
</g>
<g style="mix-blend-mode:screen" opacity="0.4">
<path d="M39.6353 8.91455L39.7655 9.16199L39.7329 9.12943C39.6879 9.06419 39.6548 8.99145 39.6353 8.91455Z" fill="white"/>
</g>
<g style="mix-blend-mode:screen" opacity="0.4">
<path d="M41.7598 11.6168L41.7858 11.6819C41.775 11.6612 41.7663 11.6394 41.7598 11.6168Z" fill="white"/>
</g>
<g style="mix-blend-mode:screen" opacity="0.4">
<path d="M41.8237 11.7408L42.0842 11.9492C42.0496 11.9389 42.0166 11.9236 41.9865 11.9036C41.9527 11.887 41.922 11.865 41.8954 11.8385L41.8823 11.8254L41.8237 11.7408Z" fill="white"/>
</g>
<g style="mix-blend-mode:screen" opacity="0.4">
<path d="M44.6042 16.1356C44.5 15.8751 44.3893 15.6081 44.2786 15.3411C44.1484 15.0481 44.0247 14.7551 43.8814 14.4686C43.8033 14.3123 43.7317 14.1625 43.6471 14.0063C43.582 13.8565 43.4972 13.7002 43.4191 13.5504C43.341 13.4007 43.2564 13.2379 43.1652 13.0816C43.048 12.8472 42.9112 12.6258 42.781 12.4044C42.6051 12.0983 42.4163 11.7988 42.234 11.4993C42.2144 11.4928 42.2144 11.4863 42.2079 11.4667C42.0126 11.1607 41.8107 10.8546 41.5958 10.5681C41.394 10.2686 41.1791 9.96904 40.9512 9.68253C40.7363 9.39602 40.515 9.103 40.274 8.823C40.2539 8.80789 40.2382 8.78764 40.2285 8.76439C40.0136 8.50393 39.7986 8.24998 39.5642 8.00253C39.3233 7.72904 39.0824 7.46858 38.8219 7.20811C38.5744 6.94114 38.3205 6.68718 38.047 6.43324C37.8061 6.19882 37.5521 5.96442 37.2851 5.73651L37.2461 5.69744C37.1093 5.58023 36.9726 5.45651 36.8358 5.34581C36.6926 5.22209 36.5494 5.10487 36.4061 4.99417C36.1326 4.76627 35.8396 4.53836 35.5465 4.32348C35.3968 4.20627 35.247 4.08906 35.0907 3.98488C34.9344 3.88069 34.7782 3.76999 34.6284 3.6593C34.5633 3.61372 34.4982 3.57464 34.433 3.52906C34.153 3.34022 33.86 3.1514 33.567 2.96907C33.2284 2.75419 32.8833 2.55232 32.5317 2.35697C32.3949 2.27883 32.2647 2.2007 32.1214 2.13558C31.9847 2.05744 31.8544 1.99231 31.7112 1.92069C31.5806 1.84564 31.4458 1.77824 31.3075 1.71882C31.0014 1.56255 30.6824 1.41278 30.3633 1.26952C30.2721 1.22394 30.1744 1.17837 30.0768 1.1393C29.8489 1.03512 29.6144 0.950466 29.38 0.852791C29.3368 0.829812 29.2909 0.812302 29.2433 0.800685C29.0806 0.729057 28.9177 0.663947 28.7484 0.605344C28.5921 0.546739 28.4359 0.488128 28.2666 0.436035C28.6052 0.501151 28.9503 0.57279 29.2824 0.670466L29.4582 0.722546L29.4386 0.709535L29.8033 0.813721L30.1744 0.930924L30.8972 1.19139L31.2489 1.32163L31.6071 1.46488C31.835 1.55605 32.0693 1.66023 32.3103 1.76441L32.6684 1.9272L33.0396 2.11605L33.7363 2.4807L33.821 2.52626L33.9252 2.58488L34.0944 2.68255L34.433 2.87789L34.7847 3.09279C34.8889 3.1514 35.0126 3.23604 35.1233 3.30767L35.4619 3.52906L35.781 3.75045L36.4191 4.21929L36.7317 4.45372L37.0507 4.70766C37.2526 4.86394 37.4544 5.03977 37.6628 5.20907L37.6758 5.22209L37.6954 5.24814L37.7344 5.2872L37.7149 5.26116L38.5224 5.99045L39.2647 6.74579L39.994 7.54021C40.2349 7.82021 40.4628 8.08718 40.6907 8.36718L40.7037 8.39323L40.821 8.61463C40.8014 8.54704 40.7706 8.48316 40.7298 8.42579L40.7493 8.44532L41.2377 9.103L41.3549 9.2723L41.4917 9.45463L41.7196 9.79323L41.9475 10.1383C42.0256 10.249 42.1037 10.3793 42.1689 10.49L42.6051 11.2063L42.6182 11.2323C42.5763 11.1727 42.5232 11.1219 42.4619 11.0825C42.4163 11.063 42.3968 11.0565 42.3837 11.05L42.6182 11.2323L42.6247 11.2453L42.6442 11.2583L42.9503 11.8314L43.0935 12.1244C43.1586 12.2481 43.1978 12.3263 43.2433 12.4304L43.5233 13.0165L43.6536 13.316L43.7837 13.6351L44.0247 14.2407C44.0637 14.3383 44.1094 14.4621 44.142 14.5597L44.2396 14.8658C44.3047 15.0742 44.3893 15.289 44.4349 15.4974L44.6042 16.1356Z" fill="white"/>
</g>
</g>
<defs>
<linearGradient id="paint0_linear_204_623" x1="41.4656" y1="46.8703" x2="41.4656" y2="5.40264" gradientUnits="userSpaceOnUse">
<stop stop-color="#075BB3"/>
<stop offset="1" stop-color="#3584B1"/>
</linearGradient>
<linearGradient id="paint1_linear_204_623" x1="10.9481" y1="41.8275" x2="54.4639" y2="41.8275" gradientUnits="userSpaceOnUse">
<stop stop-color="#075BB3"/>
<stop offset="1" stop-color="#3584B1"/>
</linearGradient>
<linearGradient id="paint2_linear_204_623" x1="12.0758" y1="13.6668" x2="12.0758" y2="55.4101" gradientUnits="userSpaceOnUse">
<stop stop-color="#075BB3"/>
<stop offset="1" stop-color="#3584B1"/>
</linearGradient>
<linearGradient id="paint3_linear_204_623" x1="44.8702" y1="13.6581" x2="2.29632" y2="13.6581" gradientUnits="userSpaceOnUse">
<stop stop-color="#075BB3"/>
<stop offset="1" stop-color="#3584B1"/>
</linearGradient>
</defs>
</svg>
